<?xml version="1.0" encoding="UTF-8"?>
<svg width="800" height="600" viewBox="0 0 800 600" fill="none" xmlns="http://www.w3.org/2000/svg">
  <!-- Background shapes -->
  <circle cx="400" cy="300" r="250" fill="url(#gradient1)" opacity="0.1"/>
  <circle cx="400" cy="300" r="200" fill="url(#gradient2)" opacity="0.15"/>
  <circle cx="400" cy="300" r="150" fill="url(#gradient3)" opacity="0.2"/>
  
  <!-- Code window -->
  <rect x="250" y="150" width="300" height="200" rx="10" fill="#2B2B2B"/>
  <rect x="250" y="150" width="300" height="30" rx="10" fill="#1E1E1E"/>
  <circle cx="270" cy="165" r="5" fill="#FF5F56"/>
  <circle cx="290" cy="165" r="5" fill="#FFBD2E"/>
  <circle cx="310" cy="165" r="5" fill="#27C93F"/>
  
  <!-- Code lines -->
  <rect x="270" y="200" width="120" height="10" rx="5" fill="#61DAFB" opacity="0.7"/>
  <rect x="270" y="220" width="180" height="10" rx="5" fill="#2196F3" opacity="0.7"/>
  <rect x="270" y="240" width="150" height="10" rx="5" fill="#21CBF3" opacity="0.7"/>
  <rect x="270" y="260" width="200" height="10" rx="5" fill="#61DAFB" opacity="0.7"/>
  <rect x="270" y="280" width="160" height="10" rx="5" fill="#2196F3" opacity="0.7"/>
  
  <!-- Floating elements -->
  <circle cx="200" cy="150" r="20" fill="#2196F3" opacity="0.2"/>
  <circle cx="600" cy="450" r="30" fill="#21CBF3" opacity="0.2"/>
  <circle cx="150" cy="400" r="25" fill="#61DAFB" opacity="0.2"/>
  <circle cx="650" cy="200" r="15" fill="#2196F3" opacity="0.2"/>
  
  <!-- Gradients -->
  <defs>
    <linearGradient id="gradient1" x1="0" y1="0" x2="800" y2="600" gradientUnits="userSpaceOnUse">
      <stop offset="0%" stop-color="#2196F3"/>
      <stop offset="100%" stop-color="#21CBF3"/>
    </linearGradient>
    <linearGradient id="gradient2" x1="0" y1="0" x2="800" y2="600" gradientUnits="userSpaceOnUse">
      <stop offset="0%" stop-color="#21CBF3"/>
      <stop offset="100%" stop-color="#61DAFB"/>
    </linearGradient>
    <linearGradient id="gradient3" x1="0" y1="0" x2="800" y2="600" gradientUnits="userSpaceOnUse">
      <stop offset="0%" stop-color="#61DAFB"/>
      <stop offset="100%" stop-color="#2196F3"/>
    </linearGradient>
  </defs>
</svg>
